<svg xmlns="http://www.w3.org/2000/svg">
    <symbol class="aah-6 aaw-6" viewBox="0 0 24 24" id="arrow-down" xmlns="http://www.w3.org/2000/svg">
        <path stroke-linecap="round" stroke-linejoin="round" stroke-width="2" d="M19 9l-7 7-7-7"/>
    </symbol>
    <symbol viewBox="0 0 16 14" id="arrow-left" xmlns="http://www.w3.org/2000/svg">
        <path fill-rule="evenodd" clip-rule="evenodd"
              d="M7.707 13.707a1 1 0 01-1.414 0l-6-6a1 1 0 010-1.414l6-6a1 1 0 111.414 1.414L3.414 6H15a1 1 0 110 2H3.414l4.293 4.293a1 1 0 010 1.414z"/>
    </symbol>
    <symbol viewBox="0 0 16 14" id="arrow-right" xmlns="http://www.w3.org/2000/svg">
        <path fill-rule="evenodd" clip-rule="evenodd"
              d="M8.293.293a1 1 0 011.414 0l6 6a1 1 0 010 1.414l-6 6a1 1 0 01-1.414-1.414L12.586 8H1a1 1 0 010-2h11.586L8.293 1.707a1 1 0 010-1.414z"/>
    </symbol>
    <symbol class="adh-6 adw-6" viewBox="0 0 24 24" id="bell" xmlns="http://www.w3.org/2000/svg">
        <path stroke-linecap="round" stroke-linejoin="round" stroke-width="2"
              d="M15 17h5l-1.405-1.405A2.032 2.032 0 0118 14.158V11a6.002 6.002 0 00-4-5.659V5a2 2 0 10-4 0v.341C7.67 6.165 6 8.388 6 11v3.159c0 .538-.214 1.055-.595 1.436L4 17h5m6 0v1a3 3 0 11-6 0v-1m6 0H9"/>
    </symbol>
    <symbol viewBox="0 0 20 18" id="certificate" xmlns="http://www.w3.org/2000/svg">
        <path d="M6 6l3 3-3 3m5 0h3M3 17h14a2 2 0 002-2V3a2 2 0 00-2-2H3a2 2 0 00-2 2v12a2 2 0 002 2z" stroke-width="2"
              stroke-linecap="round" stroke-linejoin="round"/>
    </symbol>
    <symbol viewBox="0 0 12 9" id="check" xmlns="http://www.w3.org/2000/svg">
        <path d="M1 5.2L3.857 8 11 1" stroke-width="2" stroke-linecap="round" stroke-linejoin="round"/>
    </symbol>
    <symbol viewBox="0 0 18 18" id="circle-check" xmlns="http://www.w3.org/2000/svg">
        <path fill-rule="evenodd" clip-rule="evenodd"
              d="M9 17.8A8.8 8.8 0 109 .2a8.8 8.8 0 000 17.6zm4.077-10.222a1.1 1.1 0 10-1.556-1.556L7.9 9.645 6.477 8.222a1.1 1.1 0 00-1.556 1.556l2.2 2.2a1.1 1.1 0 001.556 0l4.4-4.4z"/>
    </symbol>
    <symbol viewBox="0 0 14 14" id="circle-minus" xmlns="http://www.w3.org/2000/svg">
        <path d="M8.75 7h-3.5m7 0a5.25 5.25 0 11-10.5 0 5.25 5.25 0 0110.5 0z" stroke-width="2" stroke-linecap="round"
              stroke-linejoin="round"/>
    </symbol>
    <symbol viewBox="0 0 30 30" id="circle-plus-big" xmlns="http://www.w3.org/2000/svg">
        <path d="M15 10.5V15m0 0v4.5m0-4.5h4.5M15 15h-4.5m18 0c0 7.456-6.044 13.5-13.5 13.5S1.5 22.456 1.5 15 7.544 1.5 15 1.5 28.5 7.544 28.5 15z"
              stroke-width="2" stroke-linecap="round" stroke-linejoin="round"/>
    </symbol>
    <symbol viewBox="0 0 18 18" id="clock" xmlns="http://www.w3.org/2000/svg">
        <path d="M9 7.333V10l2 2m4-2a6 6 0 11-12 0 6 6 0 0112 0z" stroke-width="2" stroke-linecap="round"
              stroke-linejoin="round"/>
        <path d="M6 1a1 1 0 011-1h4a1 1 0 110 2H7a1 1 0 01-1-1z"/>
    </symbol>
    <symbol viewBox="0 0 20 16" id="credit-card" xmlns="http://www.w3.org/2000/svg">
        <path d="M1 6h18M5 11h1m4 0h1m-7 4h12a3 3 0 003-3V4a3 3 0 00-3-3H4a3 3 0 00-3 3v8a3 3 0 003 3z" stroke-width="2"
              stroke-linecap="round" stroke-linejoin="round"/>
    </symbol>
    <symbol class="alh-6 alw-6" viewBox="0 0 24 24" id="document-text" xmlns="http://www.w3.org/2000/svg">
        <path stroke-linecap="round" stroke-linejoin="round" stroke-width="2"
              d="M9 12h6m-6 4h6m2 5H7a2 2 0 01-2-2V5a2 2 0 012-2h5.586a1 1 0 01.707.293l5.414 5.414a1 1 0 01.293.707V19a2 2 0 01-2 2z"/>
    </symbol>
    <symbol viewBox="0 0 10 17" id="facebook" xmlns="http://www.w3.org/2000/svg">
        <path d="M7.111 4.106c0-.025.139-.108.581-.108h1.446a.897.897 0 00.33-.058c.105-.04.2-.1.28-.174a.799.799 0 00.187-.262.758.758 0 00.065-.31V.82a.761.761 0 00-.06-.31.8.8 0 00-.18-.263.857.857 0 00-.276-.179.9.9 0 00-.326-.066H7.004a4.66 4.66 0 00-1.751.28 4.45 4.45 0 00-1.492.907c-.413.42-.734.912-.944 1.449a4.11 4.11 0 00-.282 1.678V6.47H.862a.905.905 0 00-.329.06.88.88 0 00-.28.174.806.806 0 00-.186.261.766.766 0 00-.067.309V9.83c0 .212.09.416.249.566a.88.88 0 00.601.234h1.646v5.555a.779.779 0 00.24.57.88.88 0 00.599.244H6.16a.89.89 0 00.603-.235.8.8 0 00.184-.261.759.759 0 00.063-.307v-5.548h2.012a.886.886 0 00.603-.236c.16-.15.25-.355.25-.567V7.283a.76.76 0 00-.064-.306.799.799 0 00-.186-.26.856.856 0 00-.277-.173.897.897 0 00-.326-.06h-2V4.598a.837.837 0 01.088-.492z"/>
    </symbol>
    <symbol viewBox="0 0 20 20" id="github" xmlns="http://www.w3.org/2000/svg">
        <path fill-rule="evenodd" clip-rule="evenodd"
              d="M10 0C4.477 0 0 4.484 0 10.017c0 4.425 2.865 8.18 6.839 9.504.5.092.682-.217.682-.483 0-.237-.008-.868-.013-1.703-2.782.605-3.369-1.343-3.369-1.343-.454-1.158-1.11-1.466-1.11-1.466-.908-.62.069-.608.069-.608 1.003.07 1.531 1.032 1.531 1.032.892 1.53 2.341 1.088 2.91.832.092-.647.35-1.088.636-1.338-2.22-.253-4.555-1.113-4.555-4.951 0-1.093.39-1.988 1.029-2.688-.103-.253-.446-1.272.098-2.65 0 0 .84-.27 2.75 1.026A9.564 9.564 0 0110 4.844a9.59 9.59 0 012.504.337c1.909-1.296 2.747-1.027 2.747-1.027.546 1.379.203 2.398.1 2.651.64.7 1.028 1.595 1.028 2.688 0 3.848-2.339 4.695-4.566 4.942.359.31.678.921.678 1.856 0 1.338-.012 2.419-.012 2.747 0 .268.18.58.688.482A10.02 10.02 0 0020 10.017C20 4.484 15.522 0 10 0z"/>
    </symbol>
    <symbol class="aoh-6 aow-6" viewBox="0 0 24 24" id="home" xmlns="http://www.w3.org/2000/svg">
        <path stroke-linecap="round" stroke-linejoin="round" stroke-width="2"
              d="M3 12l2-2m0 0l7-7 7 7M5 10v10a1 1 0 001 1h3m10-11l2 2m-2-2v10a1 1 0 01-1 1h-3m-6 0a1 1 0 001-1v-4a1 1 0 011-1h2a1 1 0 011 1v4a1 1 0 001 1m-6 0h6"/>
    </symbol>
    <symbol viewBox="0 0 16 16" id="info" xmlns="http://www.w3.org/2000/svg">
        <path fill-rule="evenodd" clip-rule="evenodd"
              d="M16 8A8 8 0 110 8a8 8 0 0116 0zm-7 4a1 1 0 11-2 0 1 1 0 012 0zM8 3a1 1 0 00-1 1v4a1 1 0 002 0V4a1 1 0 00-1-1z"/>
    </symbol>
    <symbol viewBox="0 0 14 14" id="info2" xmlns="http://www.w3.org/2000/svg">
        <path fill-rule="evenodd" clip-rule="evenodd"
              d="M13.4 7A6.4 6.4 0 11.6 7a6.4 6.4 0 0112.8 0zM7 4.6a.8.8 0 00-.694.4.8.8 0 01-1.385-.8A2.4 2.4 0 117.8 7.664V7.8a.8.8 0 01-1.6 0V7a.8.8 0 01.8-.8.8.8 0 100-1.6zM7 11a.8.8 0 100-1.6.8.8 0 000 1.6z"/>
    </symbol>
    <symbol viewBox="0 0 17 17" id="link" xmlns="http://www.w3.org/2000/svg">
        <path d="M9.65.45a1.15 1.15 0 100 2.3h2.973L5.386 9.987a1.15 1.15 0 001.626 1.626l7.237-7.237V7.35a1.15 1.15 0 002.3 0V1.6A1.15 1.15 0 0015.4.45H9.65z"/>
        <path d="M2.75 2.75a2.3 2.3 0 00-2.3 2.3v9.2a2.3 2.3 0 002.3 2.3h9.2a2.3 2.3 0 002.3-2.3V10.8a1.15 1.15 0 00-2.3 0v3.45h-9.2v-9.2H6.2a1.15 1.15 0 000-2.3H2.75z"/>
    </symbol>
    <symbol viewBox="0 0 20 18" id="multipass" xmlns="http://www.w3.org/2000/svg">
        <path d="M8 4H3a2 2 0 00-2 2v9a2 2 0 002 2h14a2 2 0 002-2V6a2 2 0 00-2-2h-5M8 4V3a2 2 0 114 0v1M8 4a2 2 0 104 0m-5 8a2 2 0 100-4 2 2 0 000 4zm0 0c1.306 0 2.417.835 2.83 2M7 12a3.001 3.001 0 00-2.83 2M13 9h3m-3 4h2"
              stroke-width="2" stroke-linecap="round" stroke-linejoin="round"/>
    </symbol>
    <symbol viewBox="0 0 16 15" id="multipass2" xmlns="http://www.w3.org/2000/svg">
        <path d="M8 0a1 1 0 00-1 1v1a1 1 0 002 0V1a1 1 0 00-1-1z"/>
        <path clip-rule="evenodd"
              d="M2 2h3a3 3 0 006 0h3a2 2 0 012 2v9a2 2 0 01-2 2H2a2 2 0 01-2-2V4a2 2 0 012-2zm2.5 7a1.5 1.5 0 100-3 1.5 1.5 0 000 3zm2.45 4a2.5 2.5 0 10-4.9 0h4.9zM10 7a1 1 0 000 2h3a1 1 0 100-2h-3zm-1 4a1 1 0 011-1h2a1 1 0 110 2h-2a1 1 0 01-1-1z"/>
    </symbol>
    <symbol viewBox="0 0 18 20" id="out" xmlns="http://www.w3.org/2000/svg">
        <path d="M5 3H3a2 2 0 00-2 2v12a2 2 0 002 2h10a2 2 0 002-2v-1M5 3a2 2 0 002 2h2a2 2 0 002-2M5 3a2 2 0 012-2h2a2 2 0 012 2m0 0h2a2 2 0 012 2v3m2 4H7m0 0l3-3m-3 3l3 3"
              stroke-width="2" stroke-linecap="round" stroke-linejoin="round"/>
    </symbol>
    <symbol viewBox="0 0 16 14" id="photo" xmlns="http://www.w3.org/2000/svg">
        <path fill-rule="evenodd" clip-rule="evenodd"
              d="M2 2a2 2 0 00-2 2v8a2 2 0 002 2h12a2 2 0 002-2V4a2 2 0 00-2-2h-1.586a1 1 0 01-.707-.293L10.586.586A2 2 0 009.172 0H6.828a2 2 0 00-1.414.586L4.293 1.707A1 1 0 013.586 2H2zm6 9a3 3 0 100-6 3 3 0 000 6z"/>
    </symbol>
    <symbol viewBox="0 0 14 17" id="pin" xmlns="http://www.w3.org/2000/svg">
        <path fill-rule="evenodd" clip-rule="evenodd"
              d="M2.05 2.05a7 7 0 119.9 9.9L7 16.9l-4.95-4.95a7 7 0 010-9.9zM7 9a2 2 0 100-4 2 2 0 000 4z"/>
    </symbol>
    <symbol class="axh-6 axw-6" viewBox="0 0 24 24" id="play" xmlns="http://www.w3.org/2000/svg">
        <path stroke-linecap="round" stroke-linejoin="round" stroke-width="2"
              d="M14.752 11.168l-3.197-2.132A1 1 0 0010 9.87v4.263a1 1 0 001.555.832l3.197-2.132a1 1 0 000-1.664z"/>
        <path stroke-linecap="round" stroke-linejoin="round" stroke-width="2" d="M21 12a9 9 0 11-18 0 9 9 0 0118 0z"/>
    </symbol>
    <symbol viewBox="0 0 357 357" id="play-arrow" xmlns="http://www.w3.org/2000/svg">
        <path d="M38.25 0v357l280.5-178.5z"/>
    </symbol>
    <symbol viewBox="0 0 20 20" id="profile" xmlns="http://www.w3.org/2000/svg">
        <path d="M3.121 15.804A13.937 13.937 0 0110 14c2.5 0 4.847.655 6.879 1.804M13 8a3 3 0 11-6 0 3 3 0 016 0zm6 2a9 9 0 11-18 0 9 9 0 0118 0z"
              stroke-width="2" stroke-linecap="round" stroke-linejoin="round"/>
    </symbol>
    <symbol class="bah-6 baw-6" viewBox="0 0 24 24" id="star" xmlns="http://www.w3.org/2000/svg">
        <path stroke-linecap="round" stroke-linejoin="round" stroke-width="2"
              d="M11.049 2.927c.3-.921 1.603-.921 1.902 0l1.519 4.674a1 1 0 00.95.69h4.915c.969 0 1.371 1.24.588 1.81l-3.976 2.888a1 1 0 00-.363 1.118l1.518 4.674c.3.922-.755 1.688-1.538 1.118l-3.976-2.888a1 1 0 00-1.176 0l-3.976 2.888c-.783.57-1.838-.197-1.538-1.118l1.518-4.674a1 1 0 00-.363-1.118l-3.976-2.888c-.784-.57-.38-1.81.588-1.81h4.914a1 1 0 00.951-.69l1.519-4.674z"/>
    </symbol>
    <symbol viewBox="0 0 32 36" id="subtract" xmlns="http://www.w3.org/2000/svg">
        <path fill-rule="evenodd" clip-rule="evenodd"
              d="M4.571 11.25v4.5C2.047 15.75 0 17.765 0 20.25V31.5C0 33.985 2.047 36 4.571 36H27.43c2.523 0 4.57-2.015 4.57-4.5V20.25c0-2.485-2.047-4.5-4.571-4.5v-4.5C27.429 5.037 22.312 0 16 0S4.571 5.037 4.571 11.25zm18.286 4.5v-4.5c0-3.728-3.07-6.75-6.857-6.75-3.787 0-6.857 3.022-6.857 6.75v4.5h13.714zM19 24a2.99 2.99 0 01-1 2.236V29a2 2 0 11-4 0v-2.764A3 3 0 1119 24z"/>
    </symbol>
    <symbol viewBox="0 0 20 18" id="twitter" xmlns="http://www.w3.org/2000/svg">
        <path d="M6.29 17.251c7.547 0 11.675-6.253 11.675-11.675 0-.178 0-.355-.012-.53A8.349 8.349 0 0020 2.92a8.19 8.19 0 01-2.357.646 4.118 4.118 0 001.804-2.27 8.224 8.224 0 01-2.605.996 4.107 4.107 0 00-6.993 3.743 11.65 11.65 0 01-8.457-4.287 4.106 4.106 0 001.27 5.477A4.073 4.073 0 01.8 6.713v.052a4.105 4.105 0 003.292 4.022 4.096 4.096 0 01-1.853.07 4.108 4.108 0 003.834 2.85A8.232 8.232 0 010 15.407a11.616 11.616 0 006.29 1.84"/>
    </symbol>

    <symbol class="bdh-6 bdw-6" viewBox="0 0 24 24" id="zoom" xmlns="http://www.w3.org/2000/svg">
        <path stroke-linecap="round" stroke-linejoin="round" stroke-width="2"
              d="M21 21l-6-6m2-5a7 7 0 11-14 0 7 7 0 0114 0z"/>
    </symbol>
    <symbol
            xmlns="http://www.w3.org/2000/svg"
            viewBox="0 0 24 24"
            id="microphon"
    >
        <path
                stroke-linecap="round"
                stroke-linejoin="round"
                stroke-width="2"
                d="M19 11a7 7 0 01-7 7m0 0a7 7 0 01-7-7m7 7v4m0 0H8m4 0h4m-4-8a3 3 0 01-3-3V5a3 3 0 116 0v6a3 3 0 01-3 3z"
        />
    </symbol>
    <symbol
            xmlns="http://www.w3.org/2000/svg"
            viewBox="0 0 24 24"
            id="workshops"
    >
        <path
                stroke-linecap="round"
                stroke-linejoin="round"
                stroke-width="2"
                d="M8 13v-1m4 1v-3m4 3V8M8 21l4-4 4 4M3 4h18M4 4h16v12a1 1 0 01-1 1H5a1 1 0 01-1-1V4z"
        />
    </symbol>

    <symbol viewBox="0 0 18 18" id="linkedin" xmlns="http://www.w3.org/2000/svg">
        <path fill-rule="evenodd" clip-rule="evenodd" d="M2 18H16C17.1046 18 18 17.1046 18 16V2C18 0.89543 17.1046 0 16 0H2C0.89543 0 0 0.89543 0 2V16C0 17.1046 0.89543 18 2 18Z" fill="white"/>
        <path fill-rule="evenodd" clip-rule="evenodd" d="M15.5005 15.4998H12.8294V10.9503C12.8294 9.70294 12.3554 9.00589 11.3682 9.00589C10.2941 9.00589 9.73301 9.73128 9.73301 10.9503V15.4998H7.15882V6.83309H9.73301V8.00049C9.73301 8.00049 10.507 6.56831 12.3461 6.56831C14.1844 6.56831 15.5005 7.69087 15.5005 10.0126V15.4998ZM4.08783 5.69826C3.211 5.69826 2.50049 4.98217 2.50049 4.09901C2.50049 3.21585 3.211 2.49976 4.08783 2.49976C4.96465 2.49976 5.67474 3.21585 5.67474 4.09901C5.67474 4.98217 4.96465 5.69826 4.08783 5.69826ZM2.75863 15.4998H5.44284V6.83309H2.75863V15.4998Z" fill="#007FBC"/>
    </symbol>
</svg>
